<?xml version="1.0" encoding="UTF-8" standalone="no"?>
<svg
   xmlns:dc="http://purl.org/dc/elements/1.1/"
   xmlns:cc="http://creativecommons.org/ns#"
   xmlns:rdf="http://www.w3.org/1999/02/22-rdf-syntax-ns#"
   xmlns:svg="http://www.w3.org/2000/svg"
   xmlns="http://www.w3.org/2000/svg"
   id="svg2"
   version="1.1"
   xml:space="preserve"
   width="110"
   height="110"
   viewBox="0 0 110 110"><metadata
     id="metadata8"><rdf:RDF><cc:Work
         rdf:about=""><dc:format>image/svg+xml</dc:format><dc:type
           rdf:resource="http://purl.org/dc/dcmitype/StillImage" /><dc:title></dc:title></cc:Work></rdf:RDF></metadata><defs
     id="defs6"><clipPath
       clipPathUnits="userSpaceOnUse"
       id="clipPath18"><path
         d="M 0,216 360,216 360,0 0,0 0,216 Z"
         id="path20" /></clipPath></defs><g
     transform="translate(1.7419262,-2.0000063)"
     id="g4167"><g
       id="g58"
       transform="matrix(1.1798644,0,0,-1.1798644,31.764012,63.010695)"><path
         d="m 0,0 -15.118,0 c -0.324,-2.288 -1.514,-4.342 -3.328,-5.764 l 12.27,-21.251 c 1.074,0.449 2.211,0.673 3.386,0.673 1.137,0 2.255,-0.214 3.312,-0.645 l 7.695,13.372 C 3.67,-10.64 0.528,-5.703 0,0"
         style="fill:#5d5f84;fill-opacity:1;fill-rule:nonzero;stroke:none"
         id="path60" /></g><g
       id="g62"
       transform="matrix(1.1798644,0,0,-1.1798644,44.041327,80.508202)"><path
         d="m 0,0 -7.712,-13.402 c 1.823,-1.429 3.017,-3.484 3.336,-5.775 l 24.33,0 c 0.321,2.329 1.542,4.407 3.413,5.834 L 15.673,0.026 C 13.287,-1.112 10.627,-1.769 7.807,-1.769 5.009,-1.769 2.371,-1.122 0,0"
         style="fill:#7a7a9c;fill-opacity:1;fill-rule:nonzero;stroke:none"
         id="path64" /></g><g
       id="g66"
       transform="matrix(1.1798644,0,0,-1.1798644,41.013913,43.215756)"><path
         d="m 0,0 -7.318,12.716 c -1.067,-0.431 -2.175,-0.65 -3.312,-0.65 -1.175,0 -2.312,0.224 -3.395,0.678 L -26.286,-8.508 c 1.814,-1.428 3.004,-3.483 3.328,-5.765 l 15.074,0 C -7.628,-8.352 -4.579,-3.16 0,0"
         style="fill:#464471;fill-opacity:1;fill-rule:nonzero;stroke:none"
         id="path68" /></g><g
       id="g70"
       transform="matrix(1.1798644,0,0,-1.1798644,63.016025,41.751898)"><path
         d="m 0,0 7.285,12.655 c -1.871,1.43 -3.092,3.51 -3.413,5.839 l -24.331,0 c -0.318,-2.291 -1.512,-4.348 -3.335,-5.775 l 7.302,-12.693 c 2.473,1.247 5.258,1.966 8.217,1.966 C -5.293,1.992 -2.487,1.264 0,0"
         style="fill:#cbd2eb;fill-opacity:1;fill-rule:nonzero;stroke:none"
         id="path72" /></g><g
       id="g74"
       transform="matrix(1.1798644,0,0,-1.1798644,74.800746,60.056432)"><path
         d="m 0,0 15.076,0 c 0.32,2.286 1.502,4.338 3.329,5.765 L 6.122,27.03 C 5.031,26.572 3.884,26.341 2.706,26.341 c -1.11,0 -2.192,0.205 -3.224,0.609 L -7.835,14.235 C -3.284,11.072 -0.254,5.898 0,0"
         style="fill:#b6bedb;fill-opacity:1;fill-rule:nonzero;stroke:none"
         id="path76" /></g><g
       id="g78"
       transform="matrix(1.1798644,0,0,-1.1798644,92.588028,63.010695)"><path
         d="m 0,0 -15.12,0 c -0.526,-5.682 -3.647,-10.605 -8.166,-13.584 l 7.693,-13.365 c 1.028,0.407 2.112,0.607 3.223,0.607 1.179,0 2.325,-0.228 3.416,-0.684 L 3.329,-5.764 C 1.5,-4.337 0.316,-2.287 0,0"
         style="fill:#989cbc;fill-opacity:1;fill-rule:nonzero;stroke:none"
         id="path80" /></g><g
       id="g82"
       transform="matrix(1.1798644,0,0,-1.1798644,20.936633,18.285929)"><path
         d="M 0,0 C 0.028,3.501 2.883,6.315 6.387,6.289 9.889,6.263 12.699,3.401 12.674,-0.098 12.647,-3.599 9.791,-6.414 6.291,-6.384 2.785,-6.36 -0.025,-3.499 0,0"
         style="fill:#38b34a;fill-opacity:1;fill-rule:nonzero;stroke:none"
         id="path84" /></g></g></svg>
